Coordinates
version=1
nRows=17
nColumns=40
inDegrees=yes

Units are S.I. units (second, meters, Newtons, ...)
If the header above contains a line with 'inDegrees', this indicates whether rotational values are in degrees (yes) or radians (no).

endheader
time	pelvis_tilt	pelvis_list	pelvis_rotation	pelvis_tx	pelvis_ty	pelvis_tz	hip_flexion_r	hip_adduction_r	hip_rotation_r	knee_angle_r	knee_angle_r_beta	ankle_angle_r	subtalar_angle_r	mtp_angle_r	hip_flexion_l	hip_adduction_l	hip_rotation_l	knee_angle_l	knee_angle_l_beta	ankle_angle_l	subtalar_angle_l	mtp_angle_l	lumbar_extension	lumbar_bending	lumbar_rotation	arm_flex_r	arm_add_r	arm_rot_r	elbow_flex_r	pro_sup_r	wrist_flex_r	wrist_dev_r	arm_flex_l	arm_add_l	arm_rot_l	elbow_flex_l	pro_sup_l	wrist_flex_l	wrist_dev_l
      0.88500000	     -8.33860371	      1.50252417	     -2.33861253	      0.22623195	      0.88507995	     -1.21260928	     21.67703362	    -24.53448594	    -27.92463897	     25.21962655	      0.44016552	     -1.26537310	      0.31916838	      0.00000000	     19.18856281	    -23.80636465	    -37.41617403	     25.17564157	      0.43939784	      1.04175467	     14.96794608	      0.00000000	     -3.42956548	     -1.62653247	      0.90269406	     44.95025952	    -15.00242827	     44.95025952	     75.00025493	     45.00000025	      0.00000000	      0.00000000	     44.95025952	    -15.00242827	     44.95025952	     75.00025493	     45.00000025	      0.00000000	      0.00000000
      0.89000000	     -8.58674248	      1.49403659	     -2.38510471	      0.22513270	      0.88349396	     -1.21244028	     22.46285973	    -24.67362828	    -27.54743833	     26.01032310	      0.45396578	     -1.06722579	     -0.01711764	      0.00000000	     19.86871968	    -24.10840874	    -37.21273988	     25.95041168	      0.45292013	      1.27767125	     14.71694794	      0.00000000	     -3.40433804	     -1.62120954	      0.98136682	     44.95128356	    -15.00235985	     44.95128356	     75.00025163	     45.00000025	      0.00000000	      0.00000000	     44.95128356	    -15.00235985	     44.95128356	     75.00025163	     45.00000025	      0.00000000	      0.00000000
      0.89500000	     -8.80198255	      1.47562428	     -2.46352197	      0.22407690	      0.88187557	     -1.21222195	     23.20282528	    -24.78595726	    -27.15416000	     26.77461850	      0.46730525	     -0.74719870	     -0.19102367	      0.00000000	     20.50456526	    -24.46846771	    -37.10903079	     26.78240703	      0.46744118	      1.59073790	     14.58417775	      0.00000000	     -3.41268886	     -1.62147993	      1.03460755	     44.95231996	    -15.00229243	     44.95231996	     75.00024853	     45.00000025	      0.00000000	      0.00000000	     44.95231996	    -15.00229243	     44.95231996	     75.00024853	     45.00000025	      0.00000000	      0.00000000
      0.90000000	     -9.02865303	      1.42035396	     -2.49360544	      0.22293671	      0.88018775	     -1.21209488	     23.94934256	    -24.88584409	    -26.82451171	     27.57245636	      0.48123015	     -0.44460102	     -0.40117944	      0.00000000	     21.20651156	    -24.84027089	    -36.87556415	     27.62645480	      0.48217260	      1.91863534	     14.42828490	      0.00000000	     -3.42498486	     -1.57317902	      1.07197443	     44.95328371	    -15.00222976	     44.95328371	     75.00024566	     45.00000025	      0.00000000	      0.00000000	     44.95328371	    -15.00222976	     44.95328371	     75.00024566	     45.00000025	      0.00000000	      0.00000000
      0.90500000	     -9.30756057	      1.29727435	     -2.54373994	      0.22182611	      0.87826723	     -1.21195783	     24.74628598	    -24.91207557	    -26.51879694	     28.38490307	      0.49541002	     -0.08596370	     -0.52911408	      0.00000000	     22.00436612	    -25.35540313	    -36.68398816	     28.60679486	      0.49928276	      2.31370862	     14.42735804	      0.00000000	     -3.35176940	     -1.43125362	      1.10426616	     44.95427410	    -15.00216591	     44.95427410	     75.00024277	     45.00000025	      0.00000000	      0.00000000	     44.95427410	    -15.00216591	     44.95427410	     75.00024277	     45.00000025	      0.00000000	      0.00000000
      0.91000000	     -9.53581430	      1.20165449	     -2.57711073	      0.22072048	      0.87644087	     -1.21184697	     25.47488195	    -24.97418301	    -26.23961263	     29.16832776	      0.50908336	      0.19688352	     -0.71669402	      0.00000000	     22.73560006	    -25.79061230	    -36.42692905	     29.50144432	      0.51489734	      2.63218249	     14.27789618	      0.00000000	     -3.35237729	     -1.32504693	      1.12670273	     44.95513020	    -15.00211116	     44.95513020	     75.00024033	     45.00000025	      0.00000000	      0.00000000	     44.95513020	    -15.00211116	     44.95513020	     75.00024033	     45.00000025	      0.00000000	      0.00000000
      0.91500000	     -9.75117972	      1.15792701	     -2.58450903	      0.21956891	      0.87459849	     -1.21177312	     26.21148387	    -25.10869173	    -25.96800221	     29.98605570	      0.52335540	      0.44167340	     -0.96455918	      0.00000000	     23.45415512	    -26.13035523	    -36.11619189	     30.34289611	      0.52958344	      2.92548348	     14.05244660	      0.00000000	     -3.38317803	     -1.28493221	      1.12629452	     44.95593511	    -15.00205973	     44.95593511	     75.00023804	     45.00000025	      0.00000000	      0.00000000	     44.95593511	    -15.00205973	     44.95593511	     75.00023804	     45.00000025	      0.00000000	      0.00000000
      0.92000000	    -10.00180217	      1.07155562	     -2.65004389	      0.21847897	      0.87257366	     -1.21160596	     26.99753326	    -25.18314192	    -25.68494425	     30.80956058	      0.53772827	      0.81009480	     -1.00373336	      0.00000000	     24.20568849	    -26.59704165	    -35.92407250	     31.27668630	      0.54588116	      3.27689273	     14.02563601	      0.00000000	     -3.34184512	     -1.19132970	      1.17456214	     44.95676868	    -15.00200640	     44.95676868	     75.00023566	     45.00000025	      0.00000000	      0.00000000	     44.95676868	    -15.00200640	     44.95676868	     75.00023566	     45.00000025	      0.00000000	      0.00000000
      0.92500000	    -10.20325632	      1.05850119	     -2.65763612	      0.21730273	      0.87064808	     -1.21153371	     27.74377914	    -25.35894499	    -25.41326254	     31.65229054	      0.55243669	      1.06719557	     -1.22450798	      0.00000000	     24.90654407	    -26.89568887	    -35.60928625	     32.10205366	      0.56028653	      3.58088573	     13.84713767	      0.00000000	     -3.38895171	     -1.18252517	      1.18228315	     44.95752710	    -15.00195824	     44.95752710	     75.00023355	     45.00000025	      0.00000000	      0.00000000	     44.95752710	    -15.00195824	     44.95752710	     75.00023355	     45.00000025	      0.00000000	      0.00000000
      0.93000000	    -10.41625341	      1.07871270	     -2.71165452	      0.21613149	      0.86863904	     -1.21135467	     28.54035378	    -25.54543838	    -25.07837858	     32.50231254	      0.56727237	      1.35975770	     -1.39054443	      0.00000000	     25.58686586	    -27.18192653	    -35.35334308	     32.92015954	      0.57456517	      3.86326906	     13.63932555	      0.00000000	     -3.40882082	     -1.22007571	      1.23763907	     44.95831541	    -15.00190778	     44.95831541	     75.00023132	     45.00000025	      0.00000000	      0.00000000	     44.95831541	    -15.00190778	     44.95831541	     75.00023132	     45.00000025	      0.00000000	      0.00000000
      0.93500000	    -10.65129680	      1.08889446	     -2.78674083	      0.21502429	      0.86648874	     -1.21115744	     29.36557948	    -25.71959054	    -24.74121149	     33.36266375	      0.58228833	      1.72016358	     -1.38581910	      0.00000000	     26.28376209	    -27.52773021	    -35.19478313	     33.78665921	      0.58968845	      4.18106454	     13.61569584	      0.00000000	     -3.38520073	     -1.24397243	      1.32791523	     44.95914824	    -15.00185470	     44.95914824	     75.00022900	     45.00000025	      0.00000000	      0.00000000	     44.95914824	    -15.00185470	     44.95914824	     75.00022900	     45.00000025	      0.00000000	      0.00000000
      0.94000000	    -10.84004028	      1.03116321	     -2.81135460	      0.21388566	      0.86441688	     -1.21103919	     30.08239464	    -25.84345730	    -24.51503177	     34.18643173	      0.59666579	      2.03280593	     -1.45232288	      0.00000000	     26.98781532	    -27.91272479	    -34.92370432	     34.65784686	      0.60489354	      4.49199296	     13.52385699	      0.00000000	     -3.43547649	     -1.18644118	      1.33914136	     44.95983341	    -15.00181391	     44.95983341	     75.00022743	     45.00000025	      0.00000000	      0.00000000	     44.95983341	    -15.00181391	     44.95983341	     75.00022743	     45.00000025	      0.00000000	      0.00000000
      0.94500000	    -10.91606385	      1.00423637	     -2.78286845	      0.21271575	      0.86267553	     -1.21107144	     30.62367210	    -26.00190232	    -24.31407046	     34.90939603	      0.60928390	      2.20572840	     -1.67017673	      0.00000000	     27.55608011	    -28.14110488	    -34.52263755	     35.37548531	      0.61741869	      4.68418160	     13.08593729	      0.00000000	     -3.66027311	     -1.15870895	      1.30892983	     44.96035753	    -15.00178265	     44.96035753	     75.00022621	     45.00000025	      0.00000000	      0.00000000	     44.96035753	    -15.00178265	     44.96035753	     75.00022621	     45.00000025	      0.00000000	      0.00000000
      0.95000000	    -11.18303779	      1.00851903	     -2.85911481	      0.21161082	      0.86025426	     -1.21081899	     31.51208222	    -26.18210613	    -24.01682036	     35.82955740	      0.62534375	      2.61165308	     -1.68999085	      0.00000000	     28.30550620	    -28.52592428	    -34.37528751	     36.28589542	      0.63330835	      5.08987010	     13.25717744	      0.00000000	     -3.57701460	     -1.21184432	      1.34705984	     44.96115983	    -15.00173513	     44.96115983	     75.00022441	     45.00000025	      0.00000000	      0.00000000	     44.96115983	    -15.00173513	     44.96115983	     75.00022441	     45.00000025	      0.00000000	      0.00000000
      0.95500000	    -11.39494679	      1.02787603	     -2.91403247	      0.21047580	      0.85800873	     -1.21065940	     32.31420419	    -26.36120787	    -23.69592843	     36.67242842	      0.64005462	      2.92026412	     -1.75756892	      0.00000000	     28.98976738	    -28.83153626	    -34.16500551	     37.11167204	      0.64772087	      5.38275018	     13.18944779	      0.00000000	     -3.58617212	     -1.23773199	      1.39782634	     44.96197463	    -15.00168693	     44.96197463	     75.00022258	     45.00000026	      0.00000000	      0.00000000	     44.96197463	    -15.00168693	     44.96197463	     75.00022258	     45.00000026	      0.00000000	      0.00000000
      0.96000000	    -11.58619826	      1.07458876	     -3.00059482	      0.20933686	      0.85577681	     -1.21039643	     33.11443764	    -26.53972540	    -23.33628975	     37.50078852	      0.65451223	      3.23542503	     -1.80457741	      0.00000000	     29.61653770	    -29.13031598	    -34.03558980	     37.91790889	      0.66179236	      5.66571086	     13.17473809	      0.00000000	     -3.62220808	     -1.30850187	      1.51663073	     44.96267263	    -15.00164564	     44.96267263	     75.00022102	     45.00000026	      0.00000000	      0.00000000	     44.96267263	    -15.00164564	     44.96267263	     75.00022102	     45.00000026	      0.00000000	      0.00000000
      0.96500000	    -11.71537299	      1.06689989	     -2.95401496	      0.20818771	      0.85397062	     -1.21043015	     33.64553988	    -26.66388948	    -23.08760800	     38.05592918	      0.66420126	      3.31559764	     -1.98577227	      0.00000000	     30.20992684	    -29.23992709	    -33.52852194	     38.44736760	      0.67103315	      5.70901336	     12.54377232	      0.00000000	     -3.74893642	     -1.31090409	      1.50225731	     44.96325969	    -15.00161142	     44.96325969	     75.00021976	     45.00000026	      0.00000000	      0.00000000	     44.96325969	    -15.00161142	     44.96325969	     75.00021976	     45.00000026	      0.00000000	      0.00000000
